<svg width="191" height="183" viewBox="0 0 191 183" fill="none" xmlns="http://www.w3.org/2000/svg">
<g filter="url(#filter0_d_178_150)">
<path d="M139.196 83.208C135.717 33.8889 86.8744 28.9834 62.888 32.6956C34.7368 38.7413 29.2806 64.647 30.0714 76.8441C37.979 166.732 143.546 144.857 139.196 83.208Z" fill="#FDFDFD"/>
</g>
<g filter="url(#filter1_d_178_150)">
<path d="M46.3828 78.2217C46.2285 125.762 92.7866 133.933 116.085 132.076C143.548 128.277 150.624 103.822 150.729 92.0702C149.506 5.31311 46.5756 18.7964 46.3828 78.2217Z" fill="url(#paint0_linear_178_150)"/>
</g>
<path d="M104.546 65.3789C104.603 65.159 104.745 64.9706 104.941 64.855C105.136 64.7395 105.37 64.7061 105.59 64.7623C108.632 65.5547 111.408 67.1447 113.631 69.368C115.854 71.5913 117.444 74.3675 118.236 77.4102C118.292 77.6301 118.259 77.8633 118.144 78.0589C118.029 78.2545 117.841 78.3967 117.621 78.4543C117.551 78.4742 117.479 78.4844 117.406 78.4844C117.216 78.4838 117.032 78.4202 116.882 78.3035C116.732 78.1869 116.624 78.0239 116.577 77.8398C115.86 75.0943 114.424 72.5894 112.417 70.5828C110.411 68.5762 107.906 67.1404 105.16 66.423C104.941 66.3654 104.753 66.2233 104.638 66.0277C104.523 65.832 104.489 65.5988 104.546 65.3789ZM103.441 73.298C106.664 74.1639 108.836 76.3359 109.702 79.5586C109.749 79.7426 109.857 79.9057 110.007 80.0223C110.157 80.1389 110.341 80.2025 110.531 80.2031C110.604 80.2031 110.676 80.193 110.746 80.173C110.966 80.1141 111.153 79.9704 111.267 79.7735C111.381 79.5765 111.413 79.3424 111.354 79.1225C110.323 75.2553 107.734 72.6771 103.871 71.6373C103.656 71.5958 103.434 71.6377 103.249 71.7545C103.064 71.8712 102.931 72.0541 102.876 72.2658C102.821 72.4775 102.849 72.7021 102.954 72.8939C103.059 73.0857 103.234 73.2302 103.441 73.298ZM119.972 94.5074C119.615 97.2122 118.285 99.6945 116.232 101.49C114.178 103.286 111.541 104.273 108.813 104.266C92.2266 104.266 78.7344 90.7734 78.7344 74.1875C78.7287 71.4604 79.716 68.8246 81.5117 66.7722C83.3075 64.7199 85.7889 63.3914 88.4926 63.035C89.0465 62.9676 89.6073 63.0818 90.0907 63.3603C90.5742 63.6389 90.9543 64.0667 91.1739 64.5797L95.7071 74.7074C95.8765 75.1001 95.9456 75.5288 95.9081 75.9549C95.8706 76.3809 95.7277 76.791 95.4922 77.148C95.4729 77.176 95.4535 77.2039 95.4321 77.2297L90.8774 82.6459C90.8059 82.7646 90.765 82.8991 90.7582 83.0374C90.7515 83.1758 90.7791 83.3136 90.8387 83.4387C92.5231 86.8869 96.1346 90.4705 99.6237 92.1549C99.7496 92.2133 99.8881 92.2398 100.027 92.2319C100.165 92.224 100.3 92.1821 100.419 92.1098L105.762 87.5723L105.843 87.51C106.201 87.2738 106.612 87.1304 107.039 87.0929C107.466 87.0554 107.895 87.1249 108.288 87.2951L118.433 91.8412C118.941 92.0622 119.364 92.4407 119.64 92.9209C119.916 93.4011 120.03 93.9574 119.965 94.5074H119.972ZM117.748 93.4074L107.599 88.8613C107.475 88.8096 107.342 88.7878 107.208 88.7979C107.075 88.808 106.946 88.8496 106.832 88.9193L101.508 93.4568L101.428 93.517C101.058 93.7642 100.63 93.9113 100.186 93.944C99.7426 93.9768 99.2978 93.8941 98.8953 93.7039C95.0281 91.8369 91.1803 88.0148 89.3133 84.1928C89.1213 83.7934 89.0354 83.3513 89.064 82.9092C89.0926 82.467 89.2347 82.0396 89.4766 81.6684C89.4959 81.6383 89.5174 81.6125 89.5389 81.5846L94.0914 76.1705C94.1597 76.0545 94.1997 75.924 94.2083 75.7897C94.2169 75.6553 94.1938 75.5209 94.1408 75.3971L89.599 65.2693C89.535 65.1123 89.426 64.9778 89.2857 64.8826C89.1454 64.7874 88.9801 64.7358 88.8106 64.7344C88.7762 64.7322 88.7418 64.7322 88.7074 64.7344C86.4178 65.0378 84.317 66.1647 82.7978 67.9045C81.2786 69.6443 80.4451 71.8778 80.4531 74.1875C80.4531 89.8238 93.1762 102.547 108.813 102.547C111.122 102.555 113.356 101.721 115.096 100.202C116.835 98.6831 117.962 96.5823 118.266 94.2926C118.285 94.1082 118.245 93.9224 118.151 93.7629C118.056 93.6034 117.913 93.4787 117.741 93.4074H117.748Z" fill="#FDFDFD" stroke="#FDFDFD"/>
<defs>
<filter id="filter0_d_178_150" x="0" y="5.72217" width="169.327" height="165.278" filterUnits="userSpaceOnUse" color-interpolation-filters="sRGB">
<feFlood flood-opacity="0" result="BackgroundImageFix"/>
<feColorMatrix in="SourceAlpha" type="matrix" values="0 0 0 0 0 0 0 0 0 0 0 0 0 0 0 0 0 0 127 0" result="hardAlpha"/>
<feOffset dy="4"/>
<feGaussianBlur stdDeviation="15"/>
<feComposite in2="hardAlpha" operator="out"/>
<feColorMatrix type="matrix" values="0 0 0 0 0.34902 0 0 0 0 0.392157 0 0 0 0 1 0 0 0 0.06 0"/>
<feBlend mode="normal" in2="BackgroundImageFix" result="effect1_dropShadow_178_150"/>
<feBlend mode="normal" in="SourceGraphic" in2="effect1_dropShadow_178_150" result="shape"/>
</filter>
<filter id="filter1_d_178_150" x="6.38239" y="0.327637" width="184.347" height="181.986" filterUnits="userSpaceOnUse" color-interpolation-filters="sRGB">
<feFlood flood-opacity="0" result="BackgroundImageFix"/>
<feColorMatrix in="SourceAlpha" type="matrix" values="0 0 0 0 0 0 0 0 0 0 0 0 0 0 0 0 0 0 127 0" result="hardAlpha"/>
<feOffset dy="10"/>
<feGaussianBlur stdDeviation="20"/>
<feComposite in2="hardAlpha" operator="out"/>
<feColorMatrix type="matrix" values="0 0 0 0 0.886491 0 0 0 0 0.795625 0 0 0 0 0.95 0 0 0 1 0"/>
<feBlend mode="normal" in2="BackgroundImageFix" result="effect1_dropShadow_178_150"/>
<feBlend mode="normal" in="SourceGraphic" in2="effect1_dropShadow_178_150" result="shape"/>
</filter>
<linearGradient id="paint0_linear_178_150" x1="151.331" y1="84.867" x2="46.339" y2="77.1066" gradientUnits="userSpaceOnUse">
<stop stop-color="#9255CE"/>
<stop offset="1" stop-color="#BE60FF"/>
</linearGradient>
</defs>
</svg>
