<svg width="193" height="185" viewBox="0 0 193 185" fill="none" xmlns="http://www.w3.org/2000/svg">
<g filter="url(#filter0_d_178_163)">
<path d="M140.929 84.3119C137.405 34.353 87.9285 29.384 63.631 33.1443C35.1147 39.2684 29.5877 65.5101 30.3887 77.8655C38.3989 168.92 145.335 146.761 140.929 84.3119Z" fill="#FDFDFD"/>
</g>
<g filter="url(#filter1_d_178_163)">
<path d="M46.9115 79.261C46.7553 127.418 93.9173 135.695 117.518 133.814C145.337 129.965 152.505 105.194 152.612 93.2892C151.373 5.4067 47.1069 19.0649 46.9115 79.261Z" fill="url(#paint0_linear_178_163)"/>
</g>
<path d="M114.406 103.789H103.065C105.082 102.06 106.972 100.188 108.719 98.1868C114.336 91.7274 117.305 84.9368 117.305 78.5312C117.305 73.8092 115.429 69.2805 112.09 65.9414C108.751 62.6024 104.222 60.7266 99.5 60.7266C94.7779 60.7266 90.2492 62.6024 86.9102 65.9414C83.5712 69.2805 81.6953 73.8092 81.6953 78.5312C81.6953 84.9306 84.6641 91.7274 90.2809 98.1868C92.0282 100.188 93.9178 102.06 95.9349 103.789H84.5938C84.2643 103.789 83.9483 103.92 83.7154 104.153C83.4824 104.386 83.3516 104.702 83.3516 105.031C83.3516 105.361 83.4824 105.677 83.7154 105.91C83.9483 106.143 84.2643 106.273 84.5938 106.273H114.406C114.736 106.273 115.052 106.143 115.285 105.91C115.518 105.677 115.648 105.361 115.648 105.031C115.648 104.702 115.518 104.386 115.285 104.153C115.052 103.92 114.736 103.789 114.406 103.789ZM84.1797 78.5312C84.1797 74.4681 85.7938 70.5713 88.6669 67.6982C91.54 64.825 95.4368 63.2109 99.5 63.2109C103.563 63.2109 107.46 64.825 110.333 67.6982C113.206 70.5713 114.82 74.4681 114.82 78.5312C114.82 90.8745 102.605 101.083 99.5 103.481C96.3945 101.083 84.1797 90.8745 84.1797 78.5312ZM107.367 78.5312C107.367 76.9753 106.906 75.4542 106.041 74.1605C105.177 72.8667 103.948 71.8584 102.511 71.2629C101.073 70.6675 99.4913 70.5117 97.9652 70.8152C96.4391 71.1188 95.0373 71.8681 93.9371 72.9683C92.8368 74.0686 92.0875 75.4704 91.784 76.9964C91.4804 78.5225 91.6362 80.1044 92.2317 81.5419C92.8271 82.9794 93.8355 84.2081 95.1292 85.0726C96.423 85.937 97.944 86.3984 99.5 86.3984C101.587 86.3984 103.588 85.5696 105.063 84.0942C106.538 82.6188 107.367 80.6178 107.367 78.5312ZM94.1172 78.5312C94.1172 77.4666 94.4329 76.4259 95.0244 75.5407C95.6158 74.6555 96.4565 73.9656 97.4401 73.5582C98.4237 73.1508 99.506 73.0442 100.55 73.2519C101.594 73.4596 102.553 73.9722 103.306 74.725C104.059 75.4778 104.572 76.437 104.779 77.4811C104.987 78.5253 104.88 79.6076 104.473 80.5912C104.066 81.5747 103.376 82.4154 102.491 83.0069C101.605 83.5984 100.565 83.9141 99.5 83.9141C98.0724 83.9141 96.7033 83.3469 95.6938 82.3375C94.6843 81.328 94.1172 79.9589 94.1172 78.5312Z" fill="#FDFDFD"/>
<defs>
<filter id="filter0_d_178_163" x="0.316406" y="6.1582" width="170.745" height="166.644" filterUnits="userSpaceOnUse" color-interpolation-filters="sRGB">
<feFlood flood-opacity="0" result="BackgroundImageFix"/>
<feColorMatrix in="SourceAlpha" type="matrix" values="0 0 0 0 0 0 0 0 0 0 0 0 0 0 0 0 0 0 127 0" result="hardAlpha"/>
<feOffset dy="4"/>
<feGaussianBlur stdDeviation="15"/>
<feComposite in2="hardAlpha" operator="out"/>
<feColorMatrix type="matrix" values="0 0 0 0 0.34902 0 0 0 0 0.392157 0 0 0 0 1 0 0 0 0.06 0"/>
<feBlend mode="normal" in2="BackgroundImageFix" result="effect1_dropShadow_178_163"/>
<feBlend mode="normal" in="SourceGraphic" in2="effect1_dropShadow_178_163" result="shape"/>
</filter>
<filter id="filter1_d_178_163" x="6.91116" y="0.745605" width="185.7" height="183.31" filterUnits="userSpaceOnUse" color-interpolation-filters="sRGB">
<feFlood flood-opacity="0" result="BackgroundImageFix"/>
<feColorMatrix in="SourceAlpha" type="matrix" values="0 0 0 0 0 0 0 0 0 0 0 0 0 0 0 0 0 0 127 0" result="hardAlpha"/>
<feOffset dy="10"/>
<feGaussianBlur stdDeviation="20"/>
<feComposite in2="hardAlpha" operator="out"/>
<feColorMatrix type="matrix" values="0 0 0 0 1 0 0 0 0 0.517647 0 0 0 0 0.411765 0 0 0 0.5 0"/>
<feBlend mode="normal" in2="BackgroundImageFix" result="effect1_dropShadow_178_163"/>
<feBlend mode="normal" in="SourceGraphic" in2="effect1_dropShadow_178_163" result="shape"/>
</filter>
<linearGradient id="paint0_linear_178_163" x1="149.441" y1="137.124" x2="43.0878" y2="129.263" gradientUnits="userSpaceOnUse">
<stop stop-color="#FF7369"/>
<stop offset="1" stop-color="#FFB06D"/>
</linearGradient>
</defs>
</svg>
