<svg width="30" height="23" viewBox="0 0 30 23" fill="none" xmlns="http://www.w3.org/2000/svg">
<path d="M28.6619 10.4242L19.4191 0.401911C19.1701 0.141105 18.8366 -0.00320801 18.4904 5.41238e-05C18.1442 0.00331626 17.813 0.153893 17.5682 0.419351C17.3234 0.68481 17.1845 1.04391 17.1815 1.41931C17.1785 1.79471 17.3116 2.15638 17.5521 2.42641L24.541 10.0047L1.3204 10.0047C0.970209 10.0047 0.63436 10.1555 0.386736 10.424C0.139113 10.6925 0 11.0567 0 11.4364C0 11.8162 0.139113 12.1803 0.386736 12.4488C0.63436 12.7173 0.970209 12.8682 1.3204 12.8682L24.541 12.8682L17.5521 20.4464C17.426 20.5785 17.3254 20.7365 17.2562 20.9112C17.187 21.0859 17.1506 21.2737 17.149 21.4639C17.1475 21.654 17.1809 21.8425 17.2473 22.0184C17.3137 22.1944 17.4117 22.3543 17.5357 22.4887C17.6597 22.6231 17.8071 22.7294 17.9694 22.8014C18.1317 22.8734 18.3055 22.9096 18.4809 22.908C18.6562 22.9063 18.8294 22.8668 18.9905 22.7918C19.1516 22.7168 19.2973 22.6077 19.4191 22.4709L28.6619 12.4487C28.9095 12.1802 29.0485 11.8161 29.0485 11.4364C29.0485 11.0568 28.9095 10.6927 28.6619 10.4242Z" fill="#F6F6F6"/>
</svg>
