<svg width="30" height="23" viewBox="0 0 30 23" fill="none" xmlns="http://www.w3.org/2000/svg">
<path d="M0.386637 10.4242L9.62945 0.401911C9.87848 0.141105 10.212 -0.00320801 10.5582 5.41238e-05C10.9044 0.00331626 11.2356 0.153893 11.4804 0.419351C11.7252 0.68481 11.8641 1.04391 11.8671 1.41931C11.8701 1.79471 11.737 2.15638 11.4965 2.42641L4.50761 10.0047L27.7282 10.0047C28.0784 10.0047 28.4142 10.1555 28.6618 10.424C28.9095 10.6925 29.0486 11.0567 29.0486 11.4364C29.0486 11.8162 28.9095 12.1803 28.6618 12.4488C28.4142 12.7173 28.0784 12.8682 27.7282 12.8682L4.50761 12.8682L11.4965 20.4464C11.6226 20.5785 11.7232 20.7365 11.7924 20.9112C11.8616 21.0859 11.898 21.2737 11.8995 21.4639C11.9011 21.654 11.8677 21.8425 11.8013 22.0184C11.7349 22.1944 11.6368 22.3543 11.5129 22.4887C11.3889 22.6231 11.2415 22.7294 11.0792 22.8014C10.9169 22.8734 10.743 22.9096 10.5677 22.908C10.3924 22.9063 10.2191 22.8668 10.058 22.7918C9.89695 22.7168 9.75125 22.6077 9.62945 22.4709L0.386637 12.4487C0.139099 12.1802 4.19617e-05 11.8161 4.19617e-05 11.4364C4.19617e-05 11.0568 0.139099 10.6927 0.386637 10.4242Z" fill="#F87D6C"/>
</svg>
